<?xml version="1.0" encoding="utf-8" standalone="no"?>
<!DOCTYPE svg PUBLIC "-//W3C//DTD SVG 1.1//EN"
  "http://www.w3.org/Graphics/SVG/1.1/DTD/svg11.dtd">
<svg xmlns:xlink="http://www.w3.org/1999/xlink" width="545.27875pt" height="339.01pt" viewBox="0 0 545.27875 339.01" xmlns="http://www.w3.org/2000/svg" version="1.1">
 <metadata>
  <rdf:RDF xmlns:dc="http://purl.org/dc/elements/1.1/" xmlns:cc="http://creativecommons.org/ns#" xmlns:rdf="http://www.w3.org/1999/02/22-rdf-syntax-ns#">
   <cc:Work>
    <dc:type rdf:resource="http://purl.org/dc/dcmitype/StillImage"/>
    <dc:date>2026-05-04T21:22:03.748358</dc:date>
    <dc:format>image/svg+xml</dc:format>
    <dc:creator>
     <cc:Agent>
      <dc:title>Matplotlib v3.10.9, https://matplotlib.org/</dc:title>
     </cc:Agent>
    </dc:creator>
   </cc:Work>
  </rdf:RDF>
 </metadata>
 <defs>
  <style type="text/css">*{stroke-linejoin: round; stroke-linecap: butt}</style>
 </defs>
 <g id="figure_1">
  <g id="patch_1">
   <path d="M 0 339.01 
L 545.27875 339.01 
L 545.27875 0 
L 0 0 
z
" style="fill: #ffffff"/>
  </g>
  <g id="axes_1">
   <g id="patch_2">
    <path d="M 91.67875 299.518125 
L 538.07875 299.518125 
L 538.07875 22.318125 
L 91.67875 22.318125 
z
" style="fill: #ffffff"/>
   </g>
   <g id="patch_3">
    <path d="M 91.67875 34.918125 
L 533.898267 34.918125 
L 533.898267 60.764279 
L 91.67875 60.764279 
z
" clip-path="url(#p9164122fe5)" style="fill: #e63946"/>
   </g>
   <g id="patch_4">
    <path d="M 91.67875 67.225817 
L 201.285509 67.225817 
L 201.285509 93.071971 
L 91.67875 93.071971 
z
" clip-path="url(#p9164122fe5)" style="fill: #2e86ab"/>
   </g>
   <g id="patch_5">
    <path d="M 91.67875 99.53351 
L 201.285509 99.53351 
L 201.285509 125.379663 
L 91.67875 125.379663 
z
" clip-path="url(#p9164122fe5)" style="fill: #2e86ab"/>
   </g>
   <g id="patch_6">
    <path d="M 91.67875 131.841202 
L 201.285509 131.841202 
L 201.285509 157.687356 
L 91.67875 157.687356 
z
" clip-path="url(#p9164122fe5)" style="fill: #2e86ab"/>
   </g>
   <g id="patch_7">
    <path d="M 91.67875 164.148894 
L 201.285509 164.148894 
L 201.285509 189.995048 
L 91.67875 189.995048 
z
" clip-path="url(#p9164122fe5)" style="fill: #2e86ab"/>
   </g>
   <g id="patch_8">
    <path d="M 91.67875 196.456587 
L 201.285509 196.456587 
L 201.285509 222.30274 
L 91.67875 222.30274 
z
" clip-path="url(#p9164122fe5)" style="fill: #2e86ab"/>
   </g>
   <g id="patch_9">
    <path d="M 91.67875 228.764279 
L 201.285509 228.764279 
L 201.285509 254.610433 
L 91.67875 254.610433 
z
" clip-path="url(#p9164122fe5)" style="fill: #2e86ab"/>
   </g>
   <g id="patch_10">
    <path d="M 91.67875 261.071971 
L 201.285509 261.071971 
L 201.285509 286.918125 
L 91.67875 286.918125 
z
" clip-path="url(#p9164122fe5)" style="fill: #2e86ab"/>
   </g>
   <g id="matplotlib.axis_1">
    <g id="xtick_1">
     <g id="line2d_1">
      <path d="M 91.67875 299.518125 
L 91.67875 22.318125 
" clip-path="url(#p9164122fe5)" style="fill: none; stroke: #b0b0b0; stroke-opacity: 0.3; stroke-width: 0.8; stroke-linecap: square"/>
     </g>
     <g id="line2d_2">
      <defs>
       <path id="mdd5c346221" d="M 0 0 
L 0 3.5 
" style="stroke: #000000; stroke-width: 0.8"/>
      </defs>
      <g>
       <use xlink:href="#mdd5c346221" x="91.67875" y="299.518125" style="stroke: #000000; stroke-width: 0.8"/>
      </g>
     </g>
     <g id="text_1">
      <!-- $\mathdefault{0}$ -->
      <g transform="translate(88.15875 314.876406) scale(0.11 -0.11)">
       <defs>
        <path id="DejaVuSans-30" d="M 2034 4250 
Q 1547 4250 1301 3770 
Q 1056 3291 1056 2328 
Q 1056 1369 1301 889 
Q 1547 409 2034 409 
Q 2525 409 2770 889 
Q 3016 1369 3016 2328 
Q 3016 3291 2770 3770 
Q 2525 4250 2034 4250 
z
M 2034 4750 
Q 2819 4750 3233 4129 
Q 3647 3509 3647 2328 
Q 3647 1150 3233 529 
Q 2819 -91 2034 -91 
Q 1250 -91 836 529 
Q 422 1150 422 2328 
Q 422 3509 836 4129 
Q 1250 4750 2034 4750 
z
" transform="scale(0.015625)"/>
       </defs>
       <use xlink:href="#DejaVuSans-30" transform="translate(0 0.78125)"/>
      </g>
     </g>
    </g>
    <g id="xtick_2">
     <g id="line2d_3">
      <path d="M 201.285509 299.518125 
L 201.285509 22.318125 
" clip-path="url(#p9164122fe5)" style="fill: none; stroke: #b0b0b0; stroke-opacity: 0.3; stroke-width: 0.8; stroke-linecap: square"/>
     </g>
     <g id="line2d_4">
      <g>
       <use xlink:href="#mdd5c346221" x="201.285509" y="299.518125" style="stroke: #000000; stroke-width: 0.8"/>
      </g>
     </g>
     <g id="text_2">
      <!-- $\mathdefault{10^{0}}$ -->
      <g transform="translate(191.605509 314.876406) scale(0.11 -0.11)">
       <defs>
        <path id="DejaVuSans-31" d="M 794 531 
L 1825 531 
L 1825 4091 
L 703 3866 
L 703 4441 
L 1819 4666 
L 2450 4666 
L 2450 531 
L 3481 531 
L 3481 0 
L 794 0 
L 794 531 
z
" transform="scale(0.015625)"/>
       </defs>
       <use xlink:href="#DejaVuSans-31" transform="translate(0 0.765625)"/>
       <use xlink:href="#DejaVuSans-30" transform="translate(63.623047 0.765625)"/>
       <use xlink:href="#DejaVuSans-30" transform="translate(128.203125 39.046875) scale(0.7)"/>
      </g>
     </g>
    </g>
    <g id="xtick_3">
     <g id="line2d_5">
      <path d="M 448.793576 299.518125 
L 448.793576 22.318125 
" clip-path="url(#p9164122fe5)" style="fill: none; stroke: #b0b0b0; stroke-opacity: 0.3; stroke-width: 0.8; stroke-linecap: square"/>
     </g>
     <g id="line2d_6">
      <g>
       <use xlink:href="#mdd5c346221" x="448.793576" y="299.518125" style="stroke: #000000; stroke-width: 0.8"/>
      </g>
     </g>
     <g id="text_3">
      <!-- $\mathdefault{10^{1}}$ -->
      <g transform="translate(439.113576 314.876406) scale(0.11 -0.11)">
       <use xlink:href="#DejaVuSans-31" transform="translate(0 0.684375)"/>
       <use xlink:href="#DejaVuSans-30" transform="translate(63.623047 0.684375)"/>
       <use xlink:href="#DejaVuSans-31" transform="translate(128.203125 38.965625) scale(0.7)"/>
      </g>
     </g>
    </g>
    <g id="text_4">
     <!-- # namespaces in SCC -->
     <g transform="translate(254.24125 329.522344) scale(0.11 -0.11)">
      <defs>
       <path id="DejaVuSans-23" d="M 3272 2816 
L 2363 2816 
L 2100 1772 
L 3016 1772 
L 3272 2816 
z
M 2803 4594 
L 2478 3297 
L 3391 3297 
L 3719 4594 
L 4219 4594 
L 3897 3297 
L 4872 3297 
L 4872 2816 
L 3775 2816 
L 3519 1772 
L 4513 1772 
L 4513 1294 
L 3397 1294 
L 3072 0 
L 2572 0 
L 2894 1294 
L 1978 1294 
L 1656 0 
L 1153 0 
L 1478 1294 
L 494 1294 
L 494 1772 
L 1594 1772 
L 1856 2816 
L 850 2816 
L 850 3297 
L 1978 3297 
L 2297 4594 
L 2803 4594 
z
" transform="scale(0.015625)"/>
       <path id="DejaVuSans-20" transform="scale(0.015625)"/>
       <path id="DejaVuSans-6e" d="M 3513 2113 
L 3513 0 
L 2938 0 
L 2938 2094 
Q 2938 2591 2744 2837 
Q 2550 3084 2163 3084 
Q 1697 3084 1428 2787 
Q 1159 2491 1159 1978 
L 1159 0 
L 581 0 
L 581 3500 
L 1159 3500 
L 1159 2956 
Q 1366 3272 1645 3428 
Q 1925 3584 2291 3584 
Q 2894 3584 3203 3211 
Q 3513 2838 3513 2113 
z
" transform="scale(0.015625)"/>
       <path id="DejaVuSans-61" d="M 2194 1759 
Q 1497 1759 1228 1600 
Q 959 1441 959 1056 
Q 959 750 1161 570 
Q 1363 391 1709 391 
Q 2188 391 2477 730 
Q 2766 1069 2766 1631 
L 2766 1759 
L 2194 1759 
z
M 3341 1997 
L 3341 0 
L 2766 0 
L 2766 531 
Q 2569 213 2275 61 
Q 1981 -91 1556 -91 
Q 1019 -91 701 211 
Q 384 513 384 1019 
Q 384 1609 779 1909 
Q 1175 2209 1959 2209 
L 2766 2209 
L 2766 2266 
Q 2766 2663 2505 2880 
Q 2244 3097 1772 3097 
Q 1472 3097 1187 3025 
Q 903 2953 641 2809 
L 641 3341 
Q 956 3463 1253 3523 
Q 1550 3584 1831 3584 
Q 2591 3584 2966 3190 
Q 3341 2797 3341 1997 
z
" transform="scale(0.015625)"/>
       <path id="DejaVuSans-6d" d="M 3328 2828 
Q 3544 3216 3844 3400 
Q 4144 3584 4550 3584 
Q 5097 3584 5394 3201 
Q 5691 2819 5691 2113 
L 5691 0 
L 5113 0 
L 5113 2094 
Q 5113 2597 4934 2840 
Q 4756 3084 4391 3084 
Q 3944 3084 3684 2787 
Q 3425 2491 3425 1978 
L 3425 0 
L 2847 0 
L 2847 2094 
Q 2847 2600 2669 2842 
Q 2491 3084 2119 3084 
Q 1678 3084 1418 2786 
Q 1159 2488 1159 1978 
L 1159 0 
L 581 0 
L 581 3500 
L 1159 3500 
L 1159 2956 
Q 1356 3278 1631 3431 
Q 1906 3584 2284 3584 
Q 2666 3584 2933 3390 
Q 3200 3197 3328 2828 
z
" transform="scale(0.015625)"/>
       <path id="DejaVuSans-65" d="M 3597 1894 
L 3597 1613 
L 953 1613 
Q 991 1019 1311 708 
Q 1631 397 2203 397 
Q 2534 397 2845 478 
Q 3156 559 3463 722 
L 3463 178 
Q 3153 47 2828 -22 
Q 2503 -91 2169 -91 
Q 1331 -91 842 396 
Q 353 884 353 1716 
Q 353 2575 817 3079 
Q 1281 3584 2069 3584 
Q 2775 3584 3186 3129 
Q 3597 2675 3597 1894 
z
M 3022 2063 
Q 3016 2534 2758 2815 
Q 2500 3097 2075 3097 
Q 1594 3097 1305 2825 
Q 1016 2553 972 2059 
L 3022 2063 
z
" transform="scale(0.015625)"/>
       <path id="DejaVuSans-73" d="M 2834 3397 
L 2834 2853 
Q 2591 2978 2328 3040 
Q 2066 3103 1784 3103 
Q 1356 3103 1142 2972 
Q 928 2841 928 2578 
Q 928 2378 1081 2264 
Q 1234 2150 1697 2047 
L 1894 2003 
Q 2506 1872 2764 1633 
Q 3022 1394 3022 966 
Q 3022 478 2636 193 
Q 2250 -91 1575 -91 
Q 1294 -91 989 -36 
Q 684 19 347 128 
L 347 722 
Q 666 556 975 473 
Q 1284 391 1588 391 
Q 1994 391 2212 530 
Q 2431 669 2431 922 
Q 2431 1156 2273 1281 
Q 2116 1406 1581 1522 
L 1381 1569 
Q 847 1681 609 1914 
Q 372 2147 372 2553 
Q 372 3047 722 3315 
Q 1072 3584 1716 3584 
Q 2034 3584 2315 3537 
Q 2597 3491 2834 3397 
z
" transform="scale(0.015625)"/>
       <path id="DejaVuSans-70" d="M 1159 525 
L 1159 -1331 
L 581 -1331 
L 581 3500 
L 1159 3500 
L 1159 2969 
Q 1341 3281 1617 3432 
Q 1894 3584 2278 3584 
Q 2916 3584 3314 3078 
Q 3713 2572 3713 1747 
Q 3713 922 3314 415 
Q 2916 -91 2278 -91 
Q 1894 -91 1617 61 
Q 1341 213 1159 525 
z
M 3116 1747 
Q 3116 2381 2855 2742 
Q 2594 3103 2138 3103 
Q 1681 3103 1420 2742 
Q 1159 2381 1159 1747 
Q 1159 1113 1420 752 
Q 1681 391 2138 391 
Q 2594 391 2855 752 
Q 3116 1113 3116 1747 
z
" transform="scale(0.015625)"/>
       <path id="DejaVuSans-63" d="M 3122 3366 
L 3122 2828 
Q 2878 2963 2633 3030 
Q 2388 3097 2138 3097 
Q 1578 3097 1268 2742 
Q 959 2388 959 1747 
Q 959 1106 1268 751 
Q 1578 397 2138 397 
Q 2388 397 2633 464 
Q 2878 531 3122 666 
L 3122 134 
Q 2881 22 2623 -34 
Q 2366 -91 2075 -91 
Q 1284 -91 818 406 
Q 353 903 353 1747 
Q 353 2603 823 3093 
Q 1294 3584 2113 3584 
Q 2378 3584 2631 3529 
Q 2884 3475 3122 3366 
z
" transform="scale(0.015625)"/>
       <path id="DejaVuSans-69" d="M 603 3500 
L 1178 3500 
L 1178 0 
L 603 0 
L 603 3500 
z
M 603 4863 
L 1178 4863 
L 1178 4134 
L 603 4134 
L 603 4863 
z
" transform="scale(0.015625)"/>
       <path id="DejaVuSans-53" d="M 3425 4513 
L 3425 3897 
Q 3066 4069 2747 4153 
Q 2428 4238 2131 4238 
Q 1616 4238 1336 4038 
Q 1056 3838 1056 3469 
Q 1056 3159 1242 3001 
Q 1428 2844 1947 2747 
L 2328 2669 
Q 3034 2534 3370 2195 
Q 3706 1856 3706 1288 
Q 3706 609 3251 259 
Q 2797 -91 1919 -91 
Q 1588 -91 1214 -16 
Q 841 59 441 206 
L 441 856 
Q 825 641 1194 531 
Q 1563 422 1919 422 
Q 2459 422 2753 634 
Q 3047 847 3047 1241 
Q 3047 1584 2836 1778 
Q 2625 1972 2144 2069 
L 1759 2144 
Q 1053 2284 737 2584 
Q 422 2884 422 3419 
Q 422 4038 858 4394 
Q 1294 4750 2059 4750 
Q 2388 4750 2728 4690 
Q 3069 4631 3425 4513 
z
" transform="scale(0.015625)"/>
       <path id="DejaVuSans-43" d="M 4122 4306 
L 4122 3641 
Q 3803 3938 3442 4084 
Q 3081 4231 2675 4231 
Q 1875 4231 1450 3742 
Q 1025 3253 1025 2328 
Q 1025 1406 1450 917 
Q 1875 428 2675 428 
Q 3081 428 3442 575 
Q 3803 722 4122 1019 
L 4122 359 
Q 3791 134 3420 21 
Q 3050 -91 2638 -91 
Q 1578 -91 968 557 
Q 359 1206 359 2328 
Q 359 3453 968 4101 
Q 1578 4750 2638 4750 
Q 3056 4750 3426 4639 
Q 3797 4528 4122 4306 
z
" transform="scale(0.015625)"/>
      </defs>
      <use xlink:href="#DejaVuSans-23"/>
      <use xlink:href="#DejaVuSans-20" transform="translate(83.789062 0)"/>
      <use xlink:href="#DejaVuSans-6e" transform="translate(115.576172 0)"/>
      <use xlink:href="#DejaVuSans-61" transform="translate(178.955078 0)"/>
      <use xlink:href="#DejaVuSans-6d" transform="translate(240.234375 0)"/>
      <use xlink:href="#DejaVuSans-65" transform="translate(337.646484 0)"/>
      <use xlink:href="#DejaVuSans-73" transform="translate(399.169922 0)"/>
      <use xlink:href="#DejaVuSans-70" transform="translate(451.269531 0)"/>
      <use xlink:href="#DejaVuSans-61" transform="translate(514.746094 0)"/>
      <use xlink:href="#DejaVuSans-63" transform="translate(576.025391 0)"/>
      <use xlink:href="#DejaVuSans-65" transform="translate(631.005859 0)"/>
      <use xlink:href="#DejaVuSans-73" transform="translate(692.529297 0)"/>
      <use xlink:href="#DejaVuSans-20" transform="translate(744.628906 0)"/>
      <use xlink:href="#DejaVuSans-69" transform="translate(776.416016 0)"/>
      <use xlink:href="#DejaVuSans-6e" transform="translate(804.199219 0)"/>
      <use xlink:href="#DejaVuSans-20" transform="translate(867.578125 0)"/>
      <use xlink:href="#DejaVuSans-53" transform="translate(899.365234 0)"/>
      <use xlink:href="#DejaVuSans-43" transform="translate(962.841797 0)"/>
      <use xlink:href="#DejaVuSans-43" transform="translate(1032.666016 0)"/>
     </g>
    </g>
   </g>
   <g id="matplotlib.axis_2">
    <g id="ytick_1">
     <g id="line2d_7">
      <path d="M 91.67875 47.841202 
L 538.07875 47.841202 
" clip-path="url(#p9164122fe5)" style="fill: none; stroke: #b0b0b0; stroke-opacity: 0.3; stroke-width: 0.8; stroke-linecap: square"/>
     </g>
     <g id="line2d_8">
      <defs>
       <path id="m02e438e35f" d="M 0 0 
L -3.5 0 
" style="stroke: #000000; stroke-width: 0.8"/>
      </defs>
      <g>
       <use xlink:href="#m02e438e35f" x="91.67875" y="47.841202" style="stroke: #000000; stroke-width: 0.8"/>
      </g>
     </g>
     <g id="text_5">
      <!-- SCC #1 -->
      <g transform="translate(54.09125 47.009327) scale(0.08 -0.08)">
       <use xlink:href="#DejaVuSans-53"/>
       <use xlink:href="#DejaVuSans-43" transform="translate(63.476562 0)"/>
       <use xlink:href="#DejaVuSans-43" transform="translate(133.300781 0)"/>
       <use xlink:href="#DejaVuSans-20" transform="translate(203.125 0)"/>
       <use xlink:href="#DejaVuSans-23" transform="translate(234.912109 0)"/>
       <use xlink:href="#DejaVuSans-31" transform="translate(318.701172 0)"/>
      </g>
      <!-- (27 ns) -->
      <g transform="translate(56.47625 55.967577) scale(0.08 -0.08)">
       <defs>
        <path id="DejaVuSans-28" d="M 1984 4856 
Q 1566 4138 1362 3434 
Q 1159 2731 1159 2009 
Q 1159 1288 1364 580 
Q 1569 -128 1984 -844 
L 1484 -844 
Q 1016 -109 783 600 
Q 550 1309 550 2009 
Q 550 2706 781 3412 
Q 1013 4119 1484 4856 
L 1984 4856 
z
" transform="scale(0.015625)"/>
        <path id="DejaVuSans-32" d="M 1228 531 
L 3431 531 
L 3431 0 
L 469 0 
L 469 531 
Q 828 903 1448 1529 
Q 2069 2156 2228 2338 
Q 2531 2678 2651 2914 
Q 2772 3150 2772 3378 
Q 2772 3750 2511 3984 
Q 2250 4219 1831 4219 
Q 1534 4219 1204 4116 
Q 875 4013 500 3803 
L 500 4441 
Q 881 4594 1212 4672 
Q 1544 4750 1819 4750 
Q 2544 4750 2975 4387 
Q 3406 4025 3406 3419 
Q 3406 3131 3298 2873 
Q 3191 2616 2906 2266 
Q 2828 2175 2409 1742 
Q 1991 1309 1228 531 
z
" transform="scale(0.015625)"/>
        <path id="DejaVuSans-37" d="M 525 4666 
L 3525 4666 
L 3525 4397 
L 1831 0 
L 1172 0 
L 2766 4134 
L 525 4134 
L 525 4666 
z
" transform="scale(0.015625)"/>
        <path id="DejaVuSans-29" d="M 513 4856 
L 1013 4856 
Q 1481 4119 1714 3412 
Q 1947 2706 1947 2009 
Q 1947 1309 1714 600 
Q 1481 -109 1013 -844 
L 513 -844 
Q 928 -128 1133 580 
Q 1338 1288 1338 2009 
Q 1338 2731 1133 3434 
Q 928 4138 513 4856 
z
" transform="scale(0.015625)"/>
       </defs>
       <use xlink:href="#DejaVuSans-28"/>
       <use xlink:href="#DejaVuSans-32" transform="translate(39.013672 0)"/>
       <use xlink:href="#DejaVuSans-37" transform="translate(102.636719 0)"/>
       <use xlink:href="#DejaVuSans-20" transform="translate(166.259766 0)"/>
       <use xlink:href="#DejaVuSans-6e" transform="translate(198.046875 0)"/>
       <use xlink:href="#DejaVuSans-73" transform="translate(261.425781 0)"/>
       <use xlink:href="#DejaVuSans-29" transform="translate(313.525391 0)"/>
      </g>
     </g>
    </g>
    <g id="ytick_2">
     <g id="line2d_9">
      <path d="M 91.67875 80.148894 
L 538.07875 80.148894 
" clip-path="url(#p9164122fe5)" style="fill: none; stroke: #b0b0b0; stroke-opacity: 0.3; stroke-width: 0.8; stroke-linecap: square"/>
     </g>
     <g id="line2d_10">
      <g>
       <use xlink:href="#m02e438e35f" x="91.67875" y="80.148894" style="stroke: #000000; stroke-width: 0.8"/>
      </g>
     </g>
     <g id="text_6">
      <!-- Batteries -->
      <g transform="translate(48.49125 83.188269) scale(0.08 -0.08)">
       <defs>
        <path id="DejaVuSans-42" d="M 1259 2228 
L 1259 519 
L 2272 519 
Q 2781 519 3026 730 
Q 3272 941 3272 1375 
Q 3272 1813 3026 2020 
Q 2781 2228 2272 2228 
L 1259 2228 
z
M 1259 4147 
L 1259 2741 
L 2194 2741 
Q 2656 2741 2882 2914 
Q 3109 3088 3109 3444 
Q 3109 3797 2882 3972 
Q 2656 4147 2194 4147 
L 1259 4147 
z
M 628 4666 
L 2241 4666 
Q 2963 4666 3353 4366 
Q 3744 4066 3744 3513 
Q 3744 3084 3544 2831 
Q 3344 2578 2956 2516 
Q 3422 2416 3680 2098 
Q 3938 1781 3938 1306 
Q 3938 681 3513 340 
Q 3088 0 2303 0 
L 628 0 
L 628 4666 
z
" transform="scale(0.015625)"/>
        <path id="DejaVuSans-74" d="M 1172 4494 
L 1172 3500 
L 2356 3500 
L 2356 3053 
L 1172 3053 
L 1172 1153 
Q 1172 725 1289 603 
Q 1406 481 1766 481 
L 2356 481 
L 2356 0 
L 1766 0 
Q 1100 0 847 248 
Q 594 497 594 1153 
L 594 3053 
L 172 3053 
L 172 3500 
L 594 3500 
L 594 4494 
L 1172 4494 
z
" transform="scale(0.015625)"/>
        <path id="DejaVuSans-72" d="M 2631 2963 
Q 2534 3019 2420 3045 
Q 2306 3072 2169 3072 
Q 1681 3072 1420 2755 
Q 1159 2438 1159 1844 
L 1159 0 
L 581 0 
L 581 3500 
L 1159 3500 
L 1159 2956 
Q 1341 3275 1631 3429 
Q 1922 3584 2338 3584 
Q 2397 3584 2469 3576 
Q 2541 3569 2628 3553 
L 2631 2963 
z
" transform="scale(0.015625)"/>
       </defs>
       <use xlink:href="#DejaVuSans-42"/>
       <use xlink:href="#DejaVuSans-61" transform="translate(68.603516 0)"/>
       <use xlink:href="#DejaVuSans-74" transform="translate(129.882812 0)"/>
       <use xlink:href="#DejaVuSans-74" transform="translate(169.091797 0)"/>
       <use xlink:href="#DejaVuSans-65" transform="translate(208.300781 0)"/>
       <use xlink:href="#DejaVuSans-72" transform="translate(269.824219 0)"/>
       <use xlink:href="#DejaVuSans-69" transform="translate(310.9375 0)"/>
       <use xlink:href="#DejaVuSans-65" transform="translate(338.720703 0)"/>
       <use xlink:href="#DejaVuSans-73" transform="translate(400.244141 0)"/>
      </g>
     </g>
    </g>
    <g id="ytick_3">
     <g id="line2d_11">
      <path d="M 91.67875 112.456587 
L 538.07875 112.456587 
" clip-path="url(#p9164122fe5)" style="fill: none; stroke: #b0b0b0; stroke-opacity: 0.3; stroke-width: 0.8; stroke-linecap: square"/>
     </g>
     <g id="line2d_12">
      <g>
       <use xlink:href="#m02e438e35f" x="91.67875" y="112.456587" style="stroke: #000000; stroke-width: 0.8"/>
      </g>
     </g>
     <g id="text_7">
      <!-- Deprecated -->
      <g transform="translate(38.0475 115.495962) scale(0.08 -0.08)">
       <defs>
        <path id="DejaVuSans-44" d="M 1259 4147 
L 1259 519 
L 2022 519 
Q 2988 519 3436 956 
Q 3884 1394 3884 2338 
Q 3884 3275 3436 3711 
Q 2988 4147 2022 4147 
L 1259 4147 
z
M 628 4666 
L 1925 4666 
Q 3281 4666 3915 4102 
Q 4550 3538 4550 2338 
Q 4550 1131 3912 565 
Q 3275 0 1925 0 
L 628 0 
L 628 4666 
z
" transform="scale(0.015625)"/>
        <path id="DejaVuSans-64" d="M 2906 2969 
L 2906 4863 
L 3481 4863 
L 3481 0 
L 2906 0 
L 2906 525 
Q 2725 213 2448 61 
Q 2172 -91 1784 -91 
Q 1150 -91 751 415 
Q 353 922 353 1747 
Q 353 2572 751 3078 
Q 1150 3584 1784 3584 
Q 2172 3584 2448 3432 
Q 2725 3281 2906 2969 
z
M 947 1747 
Q 947 1113 1208 752 
Q 1469 391 1925 391 
Q 2381 391 2643 752 
Q 2906 1113 2906 1747 
Q 2906 2381 2643 2742 
Q 2381 3103 1925 3103 
Q 1469 3103 1208 2742 
Q 947 2381 947 1747 
z
" transform="scale(0.015625)"/>
       </defs>
       <use xlink:href="#DejaVuSans-44"/>
       <use xlink:href="#DejaVuSans-65" transform="translate(77.001953 0)"/>
       <use xlink:href="#DejaVuSans-70" transform="translate(138.525391 0)"/>
       <use xlink:href="#DejaVuSans-72" transform="translate(202.001953 0)"/>
       <use xlink:href="#DejaVuSans-65" transform="translate(240.865234 0)"/>
       <use xlink:href="#DejaVuSans-63" transform="translate(302.388672 0)"/>
       <use xlink:href="#DejaVuSans-61" transform="translate(357.369141 0)"/>
       <use xlink:href="#DejaVuSans-74" transform="translate(418.648438 0)"/>
       <use xlink:href="#DejaVuSans-65" transform="translate(457.857422 0)"/>
       <use xlink:href="#DejaVuSans-64" transform="translate(519.380859 0)"/>
      </g>
     </g>
    </g>
    <g id="ytick_4">
     <g id="line2d_13">
      <path d="M 91.67875 144.764279 
L 538.07875 144.764279 
" clip-path="url(#p9164122fe5)" style="fill: none; stroke: #b0b0b0; stroke-opacity: 0.3; stroke-width: 0.8; stroke-linecap: square"/>
     </g>
     <g id="line2d_14">
      <g>
       <use xlink:href="#m02e438e35f" x="91.67875" y="144.764279" style="stroke: #000000; stroke-width: 0.8"/>
      </g>
     </g>
     <g id="text_8">
      <!-- Testing -->
      <g transform="translate(56.555 147.803654) scale(0.08 -0.08)">
       <defs>
        <path id="DejaVuSans-54" d="M -19 4666 
L 3928 4666 
L 3928 4134 
L 2272 4134 
L 2272 0 
L 1638 0 
L 1638 4134 
L -19 4134 
L -19 4666 
z
" transform="scale(0.015625)"/>
        <path id="DejaVuSans-67" d="M 2906 1791 
Q 2906 2416 2648 2759 
Q 2391 3103 1925 3103 
Q 1463 3103 1205 2759 
Q 947 2416 947 1791 
Q 947 1169 1205 825 
Q 1463 481 1925 481 
Q 2391 481 2648 825 
Q 2906 1169 2906 1791 
z
M 3481 434 
Q 3481 -459 3084 -895 
Q 2688 -1331 1869 -1331 
Q 1566 -1331 1297 -1286 
Q 1028 -1241 775 -1147 
L 775 -588 
Q 1028 -725 1275 -790 
Q 1522 -856 1778 -856 
Q 2344 -856 2625 -561 
Q 2906 -266 2906 331 
L 2906 616 
Q 2728 306 2450 153 
Q 2172 0 1784 0 
Q 1141 0 747 490 
Q 353 981 353 1791 
Q 353 2603 747 3093 
Q 1141 3584 1784 3584 
Q 2172 3584 2450 3431 
Q 2728 3278 2906 2969 
L 2906 3500 
L 3481 3500 
L 3481 434 
z
" transform="scale(0.015625)"/>
       </defs>
       <use xlink:href="#DejaVuSans-54"/>
       <use xlink:href="#DejaVuSans-65" transform="translate(44.083984 0)"/>
       <use xlink:href="#DejaVuSans-73" transform="translate(105.607422 0)"/>
       <use xlink:href="#DejaVuSans-74" transform="translate(157.707031 0)"/>
       <use xlink:href="#DejaVuSans-69" transform="translate(196.916016 0)"/>
       <use xlink:href="#DejaVuSans-6e" transform="translate(224.699219 0)"/>
       <use xlink:href="#DejaVuSans-67" transform="translate(288.078125 0)"/>
      </g>
     </g>
    </g>
    <g id="ytick_5">
     <g id="line2d_15">
      <path d="M 91.67875 177.071971 
L 538.07875 177.071971 
" clip-path="url(#p9164122fe5)" style="fill: none; stroke: #b0b0b0; stroke-opacity: 0.3; stroke-width: 0.8; stroke-linecap: square"/>
     </g>
     <g id="line2d_16">
      <g>
       <use xlink:href="#m02e438e35f" x="91.67875" y="177.071971" style="stroke: #000000; stroke-width: 0.8"/>
      </g>
     </g>
     <g id="text_9">
      <!-- InformationTheory -->
      <g transform="translate(10.5725 180.111346) scale(0.08 -0.08)">
       <defs>
        <path id="DejaVuSans-49" d="M 628 4666 
L 1259 4666 
L 1259 0 
L 628 0 
L 628 4666 
z
" transform="scale(0.015625)"/>
        <path id="DejaVuSans-66" d="M 2375 4863 
L 2375 4384 
L 1825 4384 
Q 1516 4384 1395 4259 
Q 1275 4134 1275 3809 
L 1275 3500 
L 2222 3500 
L 2222 3053 
L 1275 3053 
L 1275 0 
L 697 0 
L 697 3053 
L 147 3053 
L 147 3500 
L 697 3500 
L 697 3744 
Q 697 4328 969 4595 
Q 1241 4863 1831 4863 
L 2375 4863 
z
" transform="scale(0.015625)"/>
        <path id="DejaVuSans-6f" d="M 1959 3097 
Q 1497 3097 1228 2736 
Q 959 2375 959 1747 
Q 959 1119 1226 758 
Q 1494 397 1959 397 
Q 2419 397 2687 759 
Q 2956 1122 2956 1747 
Q 2956 2369 2687 2733 
Q 2419 3097 1959 3097 
z
M 1959 3584 
Q 2709 3584 3137 3096 
Q 3566 2609 3566 1747 
Q 3566 888 3137 398 
Q 2709 -91 1959 -91 
Q 1206 -91 779 398 
Q 353 888 353 1747 
Q 353 2609 779 3096 
Q 1206 3584 1959 3584 
z
" transform="scale(0.015625)"/>
        <path id="DejaVuSans-68" d="M 3513 2113 
L 3513 0 
L 2938 0 
L 2938 2094 
Q 2938 2591 2744 2837 
Q 2550 3084 2163 3084 
Q 1697 3084 1428 2787 
Q 1159 2491 1159 1978 
L 1159 0 
L 581 0 
L 581 4863 
L 1159 4863 
L 1159 2956 
Q 1366 3272 1645 3428 
Q 1925 3584 2291 3584 
Q 2894 3584 3203 3211 
Q 3513 2838 3513 2113 
z
" transform="scale(0.015625)"/>
        <path id="DejaVuSans-79" d="M 2059 -325 
Q 1816 -950 1584 -1140 
Q 1353 -1331 966 -1331 
L 506 -1331 
L 506 -850 
L 844 -850 
Q 1081 -850 1212 -737 
Q 1344 -625 1503 -206 
L 1606 56 
L 191 3500 
L 800 3500 
L 1894 763 
L 2988 3500 
L 3597 3500 
L 2059 -325 
z
" transform="scale(0.015625)"/>
       </defs>
       <use xlink:href="#DejaVuSans-49"/>
       <use xlink:href="#DejaVuSans-6e" transform="translate(29.492188 0)"/>
       <use xlink:href="#DejaVuSans-66" transform="translate(92.871094 0)"/>
       <use xlink:href="#DejaVuSans-6f" transform="translate(128.076172 0)"/>
       <use xlink:href="#DejaVuSans-72" transform="translate(189.257812 0)"/>
       <use xlink:href="#DejaVuSans-6d" transform="translate(228.621094 0)"/>
       <use xlink:href="#DejaVuSans-61" transform="translate(326.033203 0)"/>
       <use xlink:href="#DejaVuSans-74" transform="translate(387.3125 0)"/>
       <use xlink:href="#DejaVuSans-69" transform="translate(426.521484 0)"/>
       <use xlink:href="#DejaVuSans-6f" transform="translate(454.304688 0)"/>
       <use xlink:href="#DejaVuSans-6e" transform="translate(515.486328 0)"/>
       <use xlink:href="#DejaVuSans-54" transform="translate(578.865234 0)"/>
       <use xlink:href="#DejaVuSans-68" transform="translate(639.949219 0)"/>
       <use xlink:href="#DejaVuSans-65" transform="translate(703.328125 0)"/>
       <use xlink:href="#DejaVuSans-6f" transform="translate(764.851562 0)"/>
       <use xlink:href="#DejaVuSans-72" transform="translate(826.033203 0)"/>
       <use xlink:href="#DejaVuSans-79" transform="translate(867.146484 0)"/>
      </g>
     </g>
    </g>
    <g id="ytick_6">
     <g id="line2d_17">
      <path d="M 91.67875 209.379663 
L 538.07875 209.379663 
" clip-path="url(#p9164122fe5)" style="fill: none; stroke: #b0b0b0; stroke-opacity: 0.3; stroke-width: 0.8; stroke-linecap: square"/>
     </g>
     <g id="line2d_18">
      <g>
       <use xlink:href="#m02e438e35f" x="91.67875" y="209.379663" style="stroke: #000000; stroke-width: 0.8"/>
      </g>
     </g>
     <g id="text_10">
      <!-- AlgebraicGeometry -->
      <g transform="translate(7.2 212.419038) scale(0.08 -0.08)">
       <defs>
        <path id="DejaVuSans-41" d="M 2188 4044 
L 1331 1722 
L 3047 1722 
L 2188 4044 
z
M 1831 4666 
L 2547 4666 
L 4325 0 
L 3669 0 
L 3244 1197 
L 1141 1197 
L 716 0 
L 50 0 
L 1831 4666 
z
" transform="scale(0.015625)"/>
        <path id="DejaVuSans-6c" d="M 603 4863 
L 1178 4863 
L 1178 0 
L 603 0 
L 603 4863 
z
" transform="scale(0.015625)"/>
        <path id="DejaVuSans-62" d="M 3116 1747 
Q 3116 2381 2855 2742 
Q 2594 3103 2138 3103 
Q 1681 3103 1420 2742 
Q 1159 2381 1159 1747 
Q 1159 1113 1420 752 
Q 1681 391 2138 391 
Q 2594 391 2855 752 
Q 3116 1113 3116 1747 
z
M 1159 2969 
Q 1341 3281 1617 3432 
Q 1894 3584 2278 3584 
Q 2916 3584 3314 3078 
Q 3713 2572 3713 1747 
Q 3713 922 3314 415 
Q 2916 -91 2278 -91 
Q 1894 -91 1617 61 
Q 1341 213 1159 525 
L 1159 0 
L 581 0 
L 581 4863 
L 1159 4863 
L 1159 2969 
z
" transform="scale(0.015625)"/>
        <path id="DejaVuSans-47" d="M 3809 666 
L 3809 1919 
L 2778 1919 
L 2778 2438 
L 4434 2438 
L 4434 434 
Q 4069 175 3628 42 
Q 3188 -91 2688 -91 
Q 1594 -91 976 548 
Q 359 1188 359 2328 
Q 359 3472 976 4111 
Q 1594 4750 2688 4750 
Q 3144 4750 3555 4637 
Q 3966 4525 4313 4306 
L 4313 3634 
Q 3963 3931 3569 4081 
Q 3175 4231 2741 4231 
Q 1884 4231 1454 3753 
Q 1025 3275 1025 2328 
Q 1025 1384 1454 906 
Q 1884 428 2741 428 
Q 3075 428 3337 486 
Q 3600 544 3809 666 
z
" transform="scale(0.015625)"/>
       </defs>
       <use xlink:href="#DejaVuSans-41"/>
       <use xlink:href="#DejaVuSans-6c" transform="translate(68.408203 0)"/>
       <use xlink:href="#DejaVuSans-67" transform="translate(96.191406 0)"/>
       <use xlink:href="#DejaVuSans-65" transform="translate(159.667969 0)"/>
       <use xlink:href="#DejaVuSans-62" transform="translate(221.191406 0)"/>
       <use xlink:href="#DejaVuSans-72" transform="translate(284.667969 0)"/>
       <use xlink:href="#DejaVuSans-61" transform="translate(325.78125 0)"/>
       <use xlink:href="#DejaVuSans-69" transform="translate(387.060547 0)"/>
       <use xlink:href="#DejaVuSans-63" transform="translate(414.84375 0)"/>
       <use xlink:href="#DejaVuSans-47" transform="translate(469.824219 0)"/>
       <use xlink:href="#DejaVuSans-65" transform="translate(547.314453 0)"/>
       <use xlink:href="#DejaVuSans-6f" transform="translate(608.837891 0)"/>
       <use xlink:href="#DejaVuSans-6d" transform="translate(670.019531 0)"/>
       <use xlink:href="#DejaVuSans-65" transform="translate(767.431641 0)"/>
       <use xlink:href="#DejaVuSans-74" transform="translate(828.955078 0)"/>
       <use xlink:href="#DejaVuSans-72" transform="translate(868.164062 0)"/>
       <use xlink:href="#DejaVuSans-79" transform="translate(909.277344 0)"/>
      </g>
     </g>
    </g>
    <g id="ytick_7">
     <g id="line2d_19">
      <path d="M 91.67875 241.687356 
L 538.07875 241.687356 
" clip-path="url(#p9164122fe5)" style="fill: none; stroke: #b0b0b0; stroke-opacity: 0.3; stroke-width: 0.8; stroke-linecap: square"/>
     </g>
     <g id="line2d_20">
      <g>
       <use xlink:href="#m02e438e35f" x="91.67875" y="241.687356" style="stroke: #000000; stroke-width: 0.8"/>
      </g>
     </g>
     <g id="text_11">
      <!-- Condensed -->
      <g transform="translate(39.8875 244.726731) scale(0.08 -0.08)">
       <use xlink:href="#DejaVuSans-43"/>
       <use xlink:href="#DejaVuSans-6f" transform="translate(69.824219 0)"/>
       <use xlink:href="#DejaVuSans-6e" transform="translate(131.005859 0)"/>
       <use xlink:href="#DejaVuSans-64" transform="translate(194.384766 0)"/>
       <use xlink:href="#DejaVuSans-65" transform="translate(257.861328 0)"/>
       <use xlink:href="#DejaVuSans-6e" transform="translate(319.384766 0)"/>
       <use xlink:href="#DejaVuSans-73" transform="translate(382.763672 0)"/>
       <use xlink:href="#DejaVuSans-65" transform="translate(434.863281 0)"/>
       <use xlink:href="#DejaVuSans-64" transform="translate(496.386719 0)"/>
      </g>
     </g>
    </g>
    <g id="ytick_8">
     <g id="line2d_21">
      <path d="M 91.67875 273.995048 
L 538.07875 273.995048 
" clip-path="url(#p9164122fe5)" style="fill: none; stroke: #b0b0b0; stroke-opacity: 0.3; stroke-width: 0.8; stroke-linecap: square"/>
     </g>
     <g id="line2d_22">
      <g>
       <use xlink:href="#m02e438e35f" x="91.67875" y="273.995048" style="stroke: #000000; stroke-width: 0.8"/>
      </g>
     </g>
     <g id="text_12">
      <!-- Mathlib -->
      <g transform="translate(55.14375 277.034423) scale(0.08 -0.08)">
       <defs>
        <path id="DejaVuSans-4d" d="M 628 4666 
L 1569 4666 
L 2759 1491 
L 3956 4666 
L 4897 4666 
L 4897 0 
L 4281 0 
L 4281 4097 
L 3078 897 
L 2444 897 
L 1241 4097 
L 1241 0 
L 628 0 
L 628 4666 
z
" transform="scale(0.015625)"/>
       </defs>
       <use xlink:href="#DejaVuSans-4d"/>
       <use xlink:href="#DejaVuSans-61" transform="translate(86.279297 0)"/>
       <use xlink:href="#DejaVuSans-74" transform="translate(147.558594 0)"/>
       <use xlink:href="#DejaVuSans-68" transform="translate(186.767578 0)"/>
       <use xlink:href="#DejaVuSans-6c" transform="translate(250.146484 0)"/>
       <use xlink:href="#DejaVuSans-69" transform="translate(277.929688 0)"/>
       <use xlink:href="#DejaVuSans-62" transform="translate(305.712891 0)"/>
      </g>
     </g>
    </g>
   </g>
   <g id="patch_11">
    <path d="M 91.67875 299.518125 
L 91.67875 22.318125 
" style="fill: none; stroke: #000000; stroke-width: 0.8; stroke-linejoin: miter; stroke-linecap: square"/>
   </g>
   <g id="patch_12">
    <path d="M 91.67875 299.518125 
L 538.07875 299.518125 
" style="fill: none; stroke: #000000; stroke-width: 0.8; stroke-linejoin: miter; stroke-linecap: square"/>
   </g>
   <g id="text_13">
    <!-- Strongly-connected components of mathlib's namespace graph -->
    <g transform="translate(124.242812 16.318125) scale(0.12 -0.12)">
     <defs>
      <path id="DejaVuSans-2d" d="M 313 2009 
L 1997 2009 
L 1997 1497 
L 313 1497 
L 313 2009 
z
" transform="scale(0.015625)"/>
      <path id="DejaVuSans-27" d="M 1147 4666 
L 1147 2931 
L 616 2931 
L 616 4666 
L 1147 4666 
z
" transform="scale(0.015625)"/>
     </defs>
     <use xlink:href="#DejaVuSans-53"/>
     <use xlink:href="#DejaVuSans-74" transform="translate(63.476562 0)"/>
     <use xlink:href="#DejaVuSans-72" transform="translate(102.685547 0)"/>
     <use xlink:href="#DejaVuSans-6f" transform="translate(141.548828 0)"/>
     <use xlink:href="#DejaVuSans-6e" transform="translate(202.730469 0)"/>
     <use xlink:href="#DejaVuSans-67" transform="translate(266.109375 0)"/>
     <use xlink:href="#DejaVuSans-6c" transform="translate(329.585938 0)"/>
     <use xlink:href="#DejaVuSans-79" transform="translate(357.369141 0)"/>
     <use xlink:href="#DejaVuSans-2d" transform="translate(414.798828 0)"/>
     <use xlink:href="#DejaVuSans-63" transform="translate(450.882812 0)"/>
     <use xlink:href="#DejaVuSans-6f" transform="translate(505.863281 0)"/>
     <use xlink:href="#DejaVuSans-6e" transform="translate(567.044922 0)"/>
     <use xlink:href="#DejaVuSans-6e" transform="translate(630.423828 0)"/>
     <use xlink:href="#DejaVuSans-65" transform="translate(693.802734 0)"/>
     <use xlink:href="#DejaVuSans-63" transform="translate(755.326172 0)"/>
     <use xlink:href="#DejaVuSans-74" transform="translate(810.306641 0)"/>
     <use xlink:href="#DejaVuSans-65" transform="translate(849.515625 0)"/>
     <use xlink:href="#DejaVuSans-64" transform="translate(911.039062 0)"/>
     <use xlink:href="#DejaVuSans-20" transform="translate(974.515625 0)"/>
     <use xlink:href="#DejaVuSans-63" transform="translate(1006.302734 0)"/>
     <use xlink:href="#DejaVuSans-6f" transform="translate(1061.283203 0)"/>
     <use xlink:href="#DejaVuSans-6d" transform="translate(1122.464844 0)"/>
     <use xlink:href="#DejaVuSans-70" transform="translate(1219.876953 0)"/>
     <use xlink:href="#DejaVuSans-6f" transform="translate(1283.353516 0)"/>
     <use xlink:href="#DejaVuSans-6e" transform="translate(1344.535156 0)"/>
     <use xlink:href="#DejaVuSans-65" transform="translate(1407.914062 0)"/>
     <use xlink:href="#DejaVuSans-6e" transform="translate(1469.4375 0)"/>
     <use xlink:href="#DejaVuSans-74" transform="translate(1532.816406 0)"/>
     <use xlink:href="#DejaVuSans-73" transform="translate(1572.025391 0)"/>
     <use xlink:href="#DejaVuSans-20" transform="translate(1624.125 0)"/>
     <use xlink:href="#DejaVuSans-6f" transform="translate(1655.912109 0)"/>
     <use xlink:href="#DejaVuSans-66" transform="translate(1717.09375 0)"/>
     <use xlink:href="#DejaVuSans-20" transform="translate(1752.298828 0)"/>
     <use xlink:href="#DejaVuSans-6d" transform="translate(1784.085938 0)"/>
     <use xlink:href="#DejaVuSans-61" transform="translate(1881.498047 0)"/>
     <use xlink:href="#DejaVuSans-74" transform="translate(1942.777344 0)"/>
     <use xlink:href="#DejaVuSans-68" transform="translate(1981.986328 0)"/>
     <use xlink:href="#DejaVuSans-6c" transform="translate(2045.365234 0)"/>
     <use xlink:href="#DejaVuSans-69" transform="translate(2073.148438 0)"/>
     <use xlink:href="#DejaVuSans-62" transform="translate(2100.931641 0)"/>
     <use xlink:href="#DejaVuSans-27" transform="translate(2164.408203 0)"/>
     <use xlink:href="#DejaVuSans-73" transform="translate(2191.898438 0)"/>
     <use xlink:href="#DejaVuSans-20" transform="translate(2243.998047 0)"/>
     <use xlink:href="#DejaVuSans-6e" transform="translate(2275.785156 0)"/>
     <use xlink:href="#DejaVuSans-61" transform="translate(2339.164062 0)"/>
     <use xlink:href="#DejaVuSans-6d" transform="translate(2400.443359 0)"/>
     <use xlink:href="#DejaVuSans-65" transform="translate(2497.855469 0)"/>
     <use xlink:href="#DejaVuSans-73" transform="translate(2559.378906 0)"/>
     <use xlink:href="#DejaVuSans-70" transform="translate(2611.478516 0)"/>
     <use xlink:href="#DejaVuSans-61" transform="translate(2674.955078 0)"/>
     <use xlink:href="#DejaVuSans-63" transform="translate(2736.234375 0)"/>
     <use xlink:href="#DejaVuSans-65" transform="translate(2791.214844 0)"/>
     <use xlink:href="#DejaVuSans-20" transform="translate(2852.738281 0)"/>
     <use xlink:href="#DejaVuSans-67" transform="translate(2884.525391 0)"/>
     <use xlink:href="#DejaVuSans-72" transform="translate(2948.001953 0)"/>
     <use xlink:href="#DejaVuSans-61" transform="translate(2989.115234 0)"/>
     <use xlink:href="#DejaVuSans-70" transform="translate(3050.394531 0)"/>
     <use xlink:href="#DejaVuSans-68" transform="translate(3113.871094 0)"/>
    </g>
   </g>
  </g>
 </g>
 <defs>
  <clipPath id="p9164122fe5">
   <rect x="91.67875" y="22.318125" width="446.4" height="277.2"/>
  </clipPath>
 </defs>
</svg>
